<?xml version="1.0" standalone="no"?>
<!DOCTYPE svg PUBLIC "-//W3C//DTD SVG 20010904//EN"
 "http://www.w3.org/TR/2001/REC-SVG-20010904/DTD/svg10.dtd">
<svg version="1.0" xmlns="http://www.w3.org/2000/svg"
 width="500.000000pt" height="500.000000pt" viewBox="0 0 500.000000 500.000000"
 preserveAspectRatio="xMidYMid meet">

<g transform="translate(0.000000,500.000000) scale(0.100000,-0.100000)"
fill="#000000" stroke="none">
<path d="M0 2500 l0 -2500 2500 0 2500 0 0 2500 0 2500 -2500 0 -2500 0 0
-2500z m1203 -660 c26 -12 58 -35 72 -51 25 -31 48 -96 39 -111 -3 -4 -39 -8
-80 -8 -70 0 -75 2 -84 24 -12 34 -39 46 -99 46 -38 0 -56 -6 -78 -24 -25 -21
-28 -32 -31 -98 -6 -118 23 -158 115 -158 51 0 93 21 93 46 0 10 -14 14 -55
14 l-55 0 0 55 0 55 140 0 140 0 0 -145 0 -145 -46 0 c-37 0 -47 4 -51 20 -7
25 -7 25 -60 -1 -56 -27 -155 -35 -224 -19 -70 17 -132 73 -155 142 -26 78
-16 210 19 271 29 48 90 92 150 108 59 15 198 4 250 -21z m2735 15 c62 -19
115 -62 145 -119 18 -34 22 -57 22 -136 0 -83 -3 -101 -25 -140 -34 -61 -97
-106 -167 -120 -137 -29 -272 14 -327 104 -27 42 -31 59 -34 142 -4 86 -2 98
23 149 45 92 120 133 246 134 36 1 89 -6 117 -14z m-2348 -170 c0 -173 0 -176
25 -200 18 -19 35 -25 65 -25 30 0 47 6 65 25 25 24 25 27 25 200 l0 175 85 0
85 0 0 -182 c0 -205 -9 -240 -69 -291 -65 -54 -196 -72 -301 -41 -66 20 -123
73 -139 129 -6 22 -11 118 -11 213 l0 172 85 0 85 0 0 -175z m640 -85 l0 -260
-85 0 -85 0 0 260 0 260 85 0 85 0 0 -260z m282 68 l3 -193 133 -3 132 -3 0
-64 0 -65 -215 0 -215 0 0 260 0 260 80 0 80 0 2 -192z m586 115 c12 -43 29
-109 38 -146 9 -38 20 -63 24 -57 4 6 22 72 41 146 l34 134 117 0 118 0 0
-260 0 -260 -85 0 -84 0 -3 153 -3 152 -41 -150 -40 -150 -67 -3 -66 -3 -15
53 c-8 29 -29 100 -45 158 l-30 105 6 -157 6 -158 -82 0 -81 0 0 260 0 260
119 0 119 0 20 -77z m1513 57 c52 -27 79 -72 79 -133 0 -57 -18 -96 -61 -130
l-32 -25 56 -106 56 -106 -95 0 -95 0 -46 95 c-42 87 -48 95 -74 95 l-29 0 0
-95 0 -95 -85 0 -85 0 0 260 0 260 185 0 c167 0 190 -2 226 -20z m-2361 -870
l0 -40 -760 0 -760 0 0 33 c0 19 3 37 7 40 3 4 345 7 760 7 l753 0 0 -40z"/>
<path d="M3753 1716 c-25 -21 -28 -32 -31 -98 -6 -117 23 -158 111 -158 73 0
107 48 107 151 0 46 -13 82 -40 109 -30 30 -110 28 -147 -4z"/>
<path d="M3301 1664 c0 -11 3 -14 6 -6 3 7 2 16 -1 19 -3 4 -6 -2 -5 -13z"/>
<path d="M4370 1695 l0 -45 63 0 c67 0 87 10 87 45 0 35 -20 45 -87 45 l-63 0
0 -45z"/>
</g>
</svg>
